<svg xmlns="http://www.w3.org/2000/svg" width="250" height="93" fill="none" xmlns:v="https://vecta.io/nano"><path d="M45.665 2.073c-24.472 0-44.31 19.837-44.31 44.307s19.838 44.31 44.31 44.31 44.31-19.838 44.31-44.31-19.84-44.307-44.31-44.307zM17.903 46.575l-7.33-4.057 5.395-2.988 29.92-16.3-2.26-1.247 11.733-.213-.623 6.373-1.64-.928-.005-.003-35.19 19.17v.193zm11.692 6.473l-7.337-4.062v-.018l35.178-19.165-2.195-1.213 11.732-.212-.623 6.373-1.64-.928-.07-.038-35.045 19.093v.17zm11.693 6.472l-7.335-4.06L68.98 36.38l-1.978-1.093 11.733-.212-.623 6.373-1.64-.928-.287-.16-34.897 19.012v.148z" fill="#763f98"/><path d="M17.902 46.575V57.46l-7.33-4.06V42.518l7.33 4.057zM41.287 59.52v10.885l-7.337-4.062v-10.88l.002-.003 7.335 4.06zm-11.692-6.472v10.885l-7.337-4.062V48.985l7.337 4.063zm51.163-10.223V53.4l-5.315 2.942v-5.49l-9.36 5.182v5.49l-5.315 2.94v-5.488l-9.788 5.417v5.49l-5.315 2.943-.023-.013V61.958l35.115-19.132z" fill="#fff"/><path d="M55.36 21.77l-.623 6.372-1.64-.927-.005-.003-35.19 19.17v.193l-7.33-4.058 5.395-2.987 29.92-16.3-2.26-1.247 11.733-.213zm23.375 13.305l-.623 6.372-1.64-.927-.287-.16-34.897 19.013v.147l-7.335-4.06L68.98 36.38l-1.978-1.093 11.733-.212zm-11.762-6.697l-.623 6.373-1.64-.928-.07-.038-35.045 19.093v.17l-7.337-4.062v-.018l35.178-19.165-2.195-1.213 11.732-.212z" fill="#ffcd34"/><path d="M248.645 53.715c0 3.097-.45 5.932-1.347 8.505s-2.198 4.77-3.898 6.595-3.735 3.235-6.107 4.235-5.035 1.5-7.983 1.5c-2.897 0-5.535-.5-7.907-1.5s-4.41-2.41-6.108-4.235-3.022-4.02-3.972-6.595-1.423-5.407-1.423-8.505.488-5.92 1.463-8.468 2.322-4.72 4.047-6.52 3.773-3.197 6.145-4.197 4.958-1.5 7.758-1.5c2.847 0 5.457.5 7.832 1.5s4.41 2.398 6.108 4.197 3.022 3.973 3.972 6.52 1.42 5.37 1.42 8.468zm-11.39 0c0-3.448-.687-6.158-2.06-8.132s-3.335-2.96-5.882-2.96-4.523.987-5.92 2.96-2.098 4.685-2.098 8.133.698 6.182 2.098 8.207 3.372 3.035 5.92 3.035 4.507-1.012 5.882-3.035 2.06-4.76 2.06-8.207zM142.125 73.5h-11.167V34.08h11.167V73.5zm33.2-9.817c-1.05.4-2.21.712-3.485.938s-2.51.337-3.71.337c-2.497 0-4.16-.697-4.982-2.097s-1.238-3.273-1.238-5.623V43.373h13.415V34.08H161.91v-9.815h-11.167v33.123c0 2.547.237 4.872.712 6.97s1.313 3.885 2.51 5.358 2.798 2.623 4.795 3.447 4.523 1.238 7.57 1.238c2.398 0 4.423-.2 6.07-.6l2.923-.858v-9.26h.002zm30.38 0c-1.05.4-2.21.712-3.485.938s-2.51.337-3.71.337c-2.5 0-4.16-.697-4.983-2.097s-1.237-3.273-1.237-5.623V43.373h13.415V34.08H192.29v-9.815h-11.165v33.123c0 2.547.237 4.872.712 6.97s1.313 3.885 2.511 5.358 2.797 2.623 4.795 3.447 4.522 1.238 7.569 1.238c2.398 0 4.423-.2 6.071-.6l2.922-.858v-9.26h0zm-69.162-34.398c3.642 0 6.595-2.953 6.595-6.595s-2.953-6.595-6.595-6.595-6.595 2.953-6.595 6.595 2.952 6.595 6.595 6.595zm-18.398 0c3.642 0 6.595-2.953 6.595-6.595s-2.953-6.595-6.595-6.595-6.595 2.953-6.595 6.595 2.953 6.595 6.595 6.595zM112.3 34.08v38.817c0 2.093-.365 3.688-1.098 4.788s-2.012 1.647-3.845 1.647c-.992 0-1.817-.052-2.47-.157v9.765l.313.043 3.255.235c5.022 0 8.865-1.31 11.532-3.922 2.668-2.618 4-6.642 4-12.083V34.08H112.3z" fill="#763f98"/></svg>